<svg xmlns:xlink="http://www.w3.org/1999/xlink" xmlns="http://www.w3.org/2000/svg" version="1.1" viewBox="0 0 1024 1024" height="1024px" width="1024px">
    <title>404</title>
    <defs>
        <linearGradient id="linearGradient-1" y2="63.6444114%" x2="50%" y1="23.2351485%" x1="34.6551427%">
            <stop offset="0%" stop-color="#E6E8ED"></stop>
            <stop offset="100%" stop-color="#FFFFFF"></stop>
        </linearGradient>
        <linearGradient id="linearGradient-2" y2="63.6444114%" x2="50%" y1="23.2351485%" x1="34.6551427%">
            <stop offset="0%" stop-color="#E6E8ED"></stop>
            <stop offset="100%" stop-color="#FFFFFF"></stop>
        </linearGradient>
        <linearGradient id="linearGradient-3" y2="100%" x2="50%" y1="0%" x1="50%">
            <stop offset="0%" stop-color="#F2F4F8"></stop>
            <stop offset="100%" stop-color="#FFFFFF"></stop>
        </linearGradient>
        <linearGradient id="linearGradient-4" y2="73.4209468%" x2="94.3859348%" y1="25.9185217%" x1="21.5249387%">
            <stop offset="0%" stop-color="#7BCCD9"></stop>
            <stop offset="100%" stop-color="#1D90A2"></stop>
        </linearGradient>
        <linearGradient id="linearGradient-5" y2="100%" x2="50%" y1="0%" x1="68.2740263%">
            <stop offset="0%" stop-color="#CCCFDD"></stop>
            <stop offset="100%" stop-color="#DDE1E7"></stop>
        </linearGradient>
        <linearGradient id="linearGradient-6" y2="100%" x2="50%" y1="0%" x1="67.1466604%">
            <stop offset="0%" stop-color="#F5F8FC"></stop>
            <stop offset="100%" stop-color="#F1F2F6"></stop>
        </linearGradient>
        <linearGradient id="linearGradient-7" y2="75.133144%" x2="24.8723562%" y1="10.4522908%" x1="50%">
            <stop offset="0%" stop-color="#C9CDD8"></stop>
            <stop offset="100%" stop-color="#DBDFE7"></stop>
        </linearGradient>
        <linearGradient id="linearGradient-8" y2="83.8856406%" x2="45.6305602%" y1="14.7726277%" x1="64.0303896%">
            <stop offset="0%" stop-color="#DEE2ED"></stop>
            <stop offset="100%" stop-color="#EAEEF3"></stop>
        </linearGradient>
        <linearGradient id="linearGradient-9" y2="49.2902756%" x2="29.1064253%" y1="51.189682%" x1="79.355729%">
            <stop offset="0%" stop-color="#DBDFE7"></stop>
            <stop offset="100%" stop-color="#CED2DC"></stop>
        </linearGradient>
        <linearGradient id="linearGradient-10" y2="88.1156405%" x2="31.0016528%" y1="22.7494898%" x1="56.3446796%">
            <stop offset="0%" stop-color="#CDD0DE"></stop>
            <stop offset="100%" stop-color="#E2E4E8"></stop>
        </linearGradient>
        <linearGradient id="linearGradient-11" y2="100%" x2="50%" y1="0%" x1="50%">
            <stop offset="0%" stop-color="#F5F8FC"></stop>
            <stop offset="100%" stop-color="#F1F2F6"></stop>
        </linearGradient>
        <linearGradient id="linearGradient-12" y2="59.7474018%" x2="82.4281758%" y1="20.3284282%" x1="12.2441506%">
            <stop offset="0%" stop-color="#DFE1E6"></stop>
            <stop offset="57.2070406%" stop-color="#E9EBEF"></stop>
            <stop offset="100%" stop-color="#DFE1E6"></stop>
        </linearGradient>
        <linearGradient id="linearGradient-13" y2="100%" x2="50%" y1="0%" x1="65.6740686%">
            <stop offset="0%" stop-color="#CCCFDD"></stop>
            <stop offset="100%" stop-color="#DDE1E7"></stop>
        </linearGradient>
        <linearGradient id="linearGradient-14" y2="83.8856406%" x2="46.375775%" y1="14.7726277%" x1="61.6374847%">
            <stop offset="0%" stop-color="#DEE2ED"></stop>
            <stop offset="100%" stop-color="#EAEEF3"></stop>
        </linearGradient>
        <linearGradient id="linearGradient-15" y2="100%" x2="50%" y1="0%" x1="65.5084678%">
            <stop offset="0%" stop-color="#F5F8FD"></stop>
            <stop offset="100%" stop-color="#F0F1F5"></stop>
        </linearGradient>
        <linearGradient id="linearGradient-16" y2="81.7757267%" x2="28.8418822%" y1="0%" x1="50%">
            <stop offset="0%" stop-color="#C9CDD8"></stop>
            <stop offset="100%" stop-color="#DBDFE7"></stop>
        </linearGradient>
        <linearGradient id="linearGradient-17" y2="47.9126148%" x2="29.1064253%" y1="53.4989982%" x1="79.355729%">
            <stop offset="0%" stop-color="#DBDFE7"></stop>
            <stop offset="100%" stop-color="#CED2DC"></stop>
        </linearGradient>
        <linearGradient id="linearGradient-18" y2="53.4021081%" x2="-3.02705766%" y1="38.976009%" x1="85.698765%">
            <stop offset="0%" stop-color="#CED2DC"></stop>
            <stop offset="100%" stop-color="#EAEEF3"></stop>
        </linearGradient>
    </defs>
    <g fill-rule="evenodd" fill="none" stroke-width="1" stroke="none" id="404">
        <path fill="url(#linearGradient-1)" id="路径-212" d="M149.468527,388.641999 C109.663294,347.341399 114.754493,320.419621 164.742124,307.876665 C168.410385,307.994048 210.197128,247.34552 263.252675,307.876665 C273.674508,318.828272 329.243214,352.186059 263.252675,388.641999 C219.258983,412.945959 181.330933,412.945959 149.468527,388.641999 Z"></path>
        <path fill="url(#linearGradient-2)" id="路径-212备份" d="M823.708614,400.442152 C802.836714,378.786156 805.506287,364.669704 831.717334,358.092796 C833.640789,358.154347 855.551695,326.353252 883.371405,358.092796 C888.8361,363.835279 917.973587,381.326456 883.371405,400.442152 C860.303284,413.185949 840.415687,413.185949 823.708614,400.442152 Z"></path>
        <path fill="url(#linearGradient-3)" id="形状结合" d="M509.588606,402.529466 C557.913522,402.529466 597.088606,444.390842 597.088606,496.029466 C597.088606,526.607182 583.352277,553.756609 562.113777,570.816104 C568.555459,573.571434 574.407676,577.568524 579.412273,582.528565 C587.471089,532.655609 631.492215,494.529466 684.588606,494.529466 C743.406932,494.529466 791.088606,541.31571 791.088606,599.029466 C791.088606,656.743223 743.406932,703.529466 684.588606,703.529466 C645.195551,703.529466 610.797876,682.543344 592.374242,651.343586 C583.541893,672.09877 563.967208,686.529466 541.238339,686.529466 C510.227698,686.529466 485.088606,659.666551 485.088606,626.529466 C485.088606,612.172848 489.807338,598.993922 497.677907,588.667028 C489.278357,587.446134 481.257868,584.951389 473.792443,581.370887 C473.98994,584.063619 474.088606,586.785219 474.088606,589.529466 C474.088606,652.489928 422.153637,703.529466 358.088606,703.529466 C302.375543,703.529466 255.835978,664.930228 244.648404,613.458889 C236.137349,628.431499 220.042231,638.529466 201.588606,638.529466 C174.250511,638.529466 152.088606,616.367562 152.088606,589.029466 C152.088606,561.691371 174.250511,539.529466 201.588606,539.529466 C220.158808,539.529466 236.34061,549.75542 244.810124,564.883439 C256.2689,513.770644 302.634552,475.529466 358.088606,475.529466 C381.749045,475.529466 403.754985,482.491086 422.101299,494.443768 C422.892912,443.536813 461.759178,402.529466 509.588606,402.529466 Z"></path>
        <g transform="translate(238.157267, 438.518306)" id="箭头+飞机">
            <g transform="translate(0.000000, 135.011161)" id="飞机">
                <polygon points="0.404874506 0 86.5999387 66.5375072 151.069835 80.5800428 142.83369 133.297937" fill="url(#linearGradient-4)" id="路径-220"></polygon>
                <polygon points="0 0 86.0910529 66.5375072 148.191403 80.5800428" fill="#67B6C3" id="路径-221"></polygon>
                <polygon points="0.238594391 0 175.157554 86.5319318 228.663044 90.7807931" fill="#67B6C3" id="路径-222"></polygon>
                <polygon points="0.404874506 0 150.694231 82 142.83369 133.297937 174.315354 85.7486378" fill="#076C7C" id="路径-223"></polygon>
            </g>
            <path stroke-dasharray="3" stroke-width="2" stroke="#1D90A2" id="路径-219" d="M355.214186,0.445943543 C514.134577,-5.74089456 601.322084,52.4475112 616.776709,175.011161 C619.071318,256.970547 489.80153,297.77014 422.573944,240.250743 C385.549618,200.97615 463.396776,201.332015 483.482746,234.815489 C505.469188,299.767502 349.991525,343.609418 171.931339,256.860127"></path>
        </g>
        <g transform="translate(226.088606, 327.529466)">
            <g id="大4">
                <path fill="url(#linearGradient-5)" id="形状结合" d="M182.821907,12 L238.12685,35.1482266 C239.452299,35.7030013 240.198274,37.1196872 239.905701,38.526453 L201.3152,224.075 L201.384015,224.09803 L201.2552,224.704 L238.567323,237.837815 C239.542993,238.18123 240.087831,239.206435 239.847129,240.195405 L239.805088,240.343389 L228.996,273.55148 C228.657509,274.591405 227.546499,275.166612 226.501927,274.842744 L192.9222,264.431 L194.7232,255.771 L192.9032,264.425 L192.9222,264.431 L182.821907,313 L124.225655,304.26792 L135.7152,248.768 L135.701254,248.764355 L136.1032,246.814 L29.2007929,213.669822 C26.5779106,212.856602 24.1644619,211.485135 22.1252976,209.652007 L21.7473806,209.302909 C14.13644,202.078974 13.8227102,190.052931 21.0466455,182.44199 L182.821907,12 Z M159.303191,124.110793 C157.390309,122.119225 154.225126,122.055438 152.233559,123.968321 L88.6268865,185.061946 L144.8082,204.836 L160.59333,128.587938 C160.9107,127.054827 160.491017,125.466685 159.46947,124.292656 Z"></path>
                <path fill="url(#linearGradient-6)" id="形状结合" d="M159.821907,0 L215.12685,23.1482266 C216.452299,23.7030013 217.198274,25.1196872 216.905701,26.526453 L178.315,212.075 L178.384015,212.09803 L178.256,212.705 L215.567323,225.837815 C216.542993,226.18123 217.087831,227.206435 216.847129,228.195405 L216.805088,228.343389 L205.985347,261.584209 C205.651091,262.611122 204.56196,263.187212 203.524989,262.885602 L169.789,253.073 L171.738,243.7 L169.768,253.067 L169.789,253.073 L159.821907,301 L101.225655,292.26792 L112.714,236.768 L112.701254,236.764355 L112.759,236.485 L13.6938673,207.67189 C11.1838034,206.94182 8.85311221,205.702165 6.84649703,204.032248 L6.47408977,203.714115 C-1.41595552,196.796107 -2.20394689,184.791807 4.71406178,176.901762 L159.821907,0 Z M136.303191,112.110793 C134.390309,110.119225 131.225126,110.055438 129.233559,111.968321 L65.6268865,173.061946 L121.808,192.836 L137.59333,116.587938 C137.9107,115.054827 137.491017,113.466685 136.46947,112.292656 Z"></path>
                <polygon points="169.687235 253.454207 159.821907 301 182.741776 313 192.687235 265.454207 226.775736 274.891791 205.3856 263.426774" fill="url(#linearGradient-7)" id="路径-215"></polygon>
                <path fill="url(#linearGradient-8)" id="路径-216" d="M217.371206,226.496862 L238.909329,237.705506 C239.775421,238.156228 240.189494,239.166422 239.888917,240.095356 L229.086128,273.481372 C228.746079,274.532296 227.618472,275.108573 226.567549,274.768523 C226.457436,274.732894 226.350624,274.687774 226.248315,274.633671 L204.308381,263.031547 L204.308381,263.031547 L214.52673,227.715124 C214.83373,226.654075 215.942753,226.042799 217.003802,226.349799 C217.130831,226.386553 217.253901,226.435815 217.371206,226.496862 Z"></path>
                <polygon points="101.225655 292.26792 124.225655 304.26792 182.821907 313 159.821907 301" fill="url(#linearGradient-9)" id="路径-217"></polygon>
            </g>
            <g transform="translate(232.426416, 126.976228)" id="0">
                <path transform="translate(86.835079, 120.645160) rotate(-26.000000) translate(-86.835079, -120.645160)" stroke-width="26" stroke="url(#linearGradient-10)" id="矩形" d="M59.9652194,50.424789 C60.8373557,50.373254 61.7124659,50.4097667 62.5772779,50.5337736 L112.715994,57.7232474 C115.847791,58.172321 118.590467,59.7162555 120.572554,61.9385631 C122.554641,64.1608706 123.776139,67.0615512 123.86558,70.2241169 L126.934043,178.72229 C127.035528,182.310707 125.672912,185.600543 123.387821,188.018646 C121.10273,190.436749 117.895164,191.983119 114.306748,192.084604 C113.717133,192.101279 113.127067,192.077806 112.540639,192.014347 L65.8710928,186.964113 C62.7161521,186.622708 59.9150557,185.167198 57.8558972,183.005081 C55.7967387,180.842963 54.479518,177.974239 54.2923288,174.806406 L47.7546965,64.1689926 C47.5429394,60.5853927 48.8037702,57.2552203 51.0134402,54.7680087 C53.2231102,52.2807971 56.3816195,50.6365461 59.9652194,50.424789 Z"></path>
                <path transform="translate(92.791259, 99.505011) rotate(-26.000000) translate(-92.791259, -99.505011)" stroke-width="26" stroke="url(#linearGradient-11)" id="矩形" d="M67.0350654,31.5678514 C67.8263842,31.5360137 68.6189569,31.5765531 69.4028975,31.6889636 L117.327686,38.5609786 C120.459483,39.0100523 123.202159,40.5539868 125.184246,42.7762943 C127.166333,44.9986019 128.387831,47.8992825 128.477272,51.0618482 L131.416444,154.988412 C131.517929,158.576828 130.155313,161.866664 127.870222,164.284767 C125.585131,166.70287 122.377565,168.249241 118.789149,168.350726 C118.168994,168.368264 117.54838,168.341387 116.932063,168.270299 L70.3095702,162.892746 C67.1283548,162.525817 64.3177442,161.027735 62.2702535,158.821455 C60.2227627,156.615176 58.9383917,153.7007 58.8096555,150.500982 L54.5681884,45.0799562 C54.4238725,41.4930074 55.7471174,38.1871391 58.0031783,35.741929 C60.2592393,33.296719 63.4481165,31.7121672 67.0350654,31.5678514 Z"></path>
                <path fill="url(#linearGradient-12)" id="路径" d="M79.1401811,173.92867 L71.5383733,192.326252 C74.2964726,196.352335 78.4345146,199.493726 83.9524995,201.750423 C87.8117787,202.854012 90.7580318,203.315825 92.7912589,203.135862 L101.996907,179.321709 C96.5042628,179.900007 92.2681806,179.855181 89.2886599,179.187231 C86.3091393,178.51928 82.926313,176.766427 79.1401811,173.92867 Z"></path>
            </g>
            <g transform="translate(342.132228, 125.038223)" id="小4">
                <g transform="translate(116.812296, 123.020019) rotate(-35.000000) translate(-116.812296, -123.020019) translate(43.349818, 24.279287)" id="4备份">
                    <path fill="url(#linearGradient-13)" id="形状结合" d="M100.264677,15.4814636 L132.673526,29.0992719 C133.995953,29.65494 134.739998,31.0690117 134.449009,32.4736138 L111.533198,143.086464 L79.8921977,130.464464 L79.3381977,132.758464 L111.403198,143.712464 L111.533198,143.086464 L132.728968,151.540737 C132.784012,151.562693 132.838026,151.587074 132.890852,151.613801 L133.045616,151.700938 C133.9831,152.285059 134.269558,153.518564 133.685436,154.456048 L123.12671,171.402259 C122.652154,172.163897 121.728387,172.516206 120.867171,172.264008 L106.368198,168.017464 L107.471198,162.695464 L106.356198,168.014464 L106.368198,168.017464 L100.264677,197.481464 L64.971977,192.201601 L73.0031977,158.969464 L71.8837651,158.641306 L72.0231977,157.959464 L22.7316573,143.52606 C20.1940042,142.782936 17.8411818,141.518846 15.8225591,139.816517 L15.4480202,139.492215 C7.60535817,132.520536 6.89928703,120.511139 13.8709662,112.668477 L100.264677,15.4814636 Z M85.9750916,87.0077222 C82.4660987,83.4872872 76.7676214,83.4780115 73.2471864,86.9870044 L43.9936445,116.145467 L79.8921977,130.464464 L88.3489156,95.4755829 C89.0599274,92.533652 88.2435524,89.4388864 86.1917428,87.2327325 Z"></path>
                    <path fill="url(#linearGradient-14)" id="路径-216" d="M14.2111808,111.986367 L25.0955344,100.101884 C25.8415558,99.287313 27.1066658,99.2317426 27.9212368,99.977764 C28.3195733,100.342579 28.5534117,100.853003 28.5695524,101.392911 L29.2773265,125.068019 C29.2910565,125.527287 29.1462333,125.977277 28.8672083,126.342326 L17.3879496,141.360659 L17.3879496,141.360659 L16.4549407,140.617099 C7.97030929,133.85529 6.57368604,121.495608 13.3354953,113.010976 C13.6155846,112.659524 13.9076516,112.317786 14.2111808,111.986367 Z"></path>
                    <path fill="url(#linearGradient-15)" id="形状结合" d="M112.617928,0 L145.085045,13.6182865 C146.40884,14.1735505 147.153759,15.588805 146.862054,16.9943869 L123.776271,128.231 L123.817649,128.24532 L123.740271,128.612 L145.524858,136.29635 C146.499395,136.640098 147.043599,137.664195 146.803667,138.652415 L146.761752,138.800289 L140.708764,157.436155 C140.374864,158.464162 139.284612,159.040883 138.246921,158.73842 L118.631271,153.021 L119.791271,147.432 L118.619271,153.018 L118.631271,153.021 L112.617928,182 L77.2630155,176.720138 L84.1942706,143.161 L84.2212706,142.991 L35.7577174,128.86516 C33.2672616,128.139249 30.9536245,126.911584 28.9582464,125.259656 L28.5634562,124.923636 C20.6661125,118.01396 19.8654496,106.010499 26.7751255,98.1131556 L112.617928,0 Z M92.970639,81.3402981 C89.523638,77.7591422 83.826191,77.6503882 80.2450351,81.0973892 L55.7839736,104.642107 L89.6822706,116.599 L95.3002962,89.4023401 C95.8801087,86.5954893 95.0875838,83.6868891 93.1793502,81.5646333 Z"></path>
                    <polygon points="118.607886 152.677412 112.617928 182 139.524906 159.054316" fill="url(#linearGradient-16)" id="路径-215"></polygon>
                    <polygon points="64.971977 192.201601 77.2630155 176.720138 112.617928 182 100.264677 197.481464" fill="url(#linearGradient-17)" id="路径-217"></polygon>
                </g>
                <path fill="url(#linearGradient-18)" id="路径-218" d="M96.1432649,170.499039 L95.3243024,190.095247 C97.0003346,190.174756 100.252604,189.357777 105.081111,187.644309 C115.399463,184.332463 130.771698,179.316021 151.197815,172.594983 L163.464237,204.448633 L164.652664,184.71711 L151.197815,153.332065 L96.1432649,170.499039 Z"></path>
            </g>
        </g>
        <g transform="translate(488.549903, 436.905933)" id="人物">
            <path fill="#5B5B5B" id="路径-224" d="M31.6896845,17.0276515 C23.2228786,24.7123164 18.9894756,30.0606902 18.9894756,33.0727731 C19.1807048,33.2444692 21.2974063,34.7029758 25.33958,37.4482929 C21.1061771,52.0324555 21.1061771,60.4705462 25.33958,62.762565 C31.2968284,63.0070406 54.1618167,64.0732935 54.1618167,60.7743524 C54.1618167,57.4754114 52.9786019,55.2731845 50.2957706,51.6536899 C48.5072165,49.2406935 48.5072165,40.7818973 50.2957706,26.2773013 L57.6483443,26.2773013 L54.1618167,17.0276515 L45.018007,14.7646741 C45.4374626,19.5854244 45.3851086,22.3043959 44.8609452,22.9215885 C43.9047546,22.9215885 42.4083421,25.1349126 38.3189099,23.0909121 C37.2113161,22.537309 35.0015743,20.5162221 31.6896845,17.0276515 Z"></path>
            <path fill="#FABDAF" id="路径-225" d="M37.0790535,6.19981063 C36.8769534,12.0117799 37.570206,14.9177645 39.1588113,14.9177645 C39.0740245,15.9188856 37.1087159,17.1633235 33.2628856,18.6510782 C36.5473425,22.2804792 39.2097185,24.072352 41.2500135,24.0266965 C43.3513933,24.1519839 46.1865502,23.0389763 46.1865502,19.6755643 C46.8564836,14.9225481 52.3267818,11.0884828 48.7768792,6.19981063 C46.4102775,2.94069585 42.5110023,2.94069585 37.0790535,6.19981063 Z"></path>
            <path fill="#FABDAF" id="路径-226" d="M20.0106696,33.847523 L9.73780369,65.0281037 C3.61138548,64.5650247 0.390935316,65.4129358 0.0764531875,67.571837 C-0.0439992909,68.3987361 -0.104547704,69.9777759 0.548176381,70.37383 C1.49340984,70.9473703 3.83570162,71.1093889 7.57505173,70.8598859 C6.95783401,72.3259173 6.64922515,73.2776774 6.64922515,73.715166 C6.64922515,74.1526547 6.95783401,74.1526547 7.57505173,73.715166 C9.06805676,71.6754926 10.8663918,69.6277162 12.9700569,67.571837 C15.073722,65.5159577 18.9079699,55.2641905 24.4728005,36.8165354 L20.0106696,33.847523 Z"></path>
            <path fill="#FABDAF" id="路径-227" d="M54.4468869,17.5997614 C72.4059661,12.9149087 81.3855057,9.00311018 81.3855057,5.86436584 C81.3855057,1.15624933 86.574189,1.80974029 87.0821355,2.65872155 C88.0570136,3.72707806 88.6767329,8.84928787 83.1713882,8.84928787 C82.6091437,9.34297415 79.2089738,15.7643393 71.2354999,20.8782951 C68.6719097,22.5225078 64.0473964,24.0741056 57.3619602,25.5330887 L54.4468869,17.5997614 Z"></path>
            <path fill="#5B5B5B" id="路径-228" d="M37.2048858,4.13972673 C40.3528483,-0.545382638 43.8121006,-1.25373499 47.5826428,2.01466969 C47.749193,2.18166352 51.1725238,2.89001587 57.8526353,4.13972673 L57.8526353,5.58192328 L48.6887487,5.58192328 C46.2615283,7.59964451 42.433574,8.10407482 37.2048858,7.09521421 C35.8838822,5.53664922 35.8838822,4.55148673 37.2048858,4.13972673 Z"></path>
            <path fill="#373C60" id="路径-232" d="M41.9038433,98.7402612 C48.531407,103.138203 52.1617741,105.092422 52.7949447,104.602916 C54.0345969,103.487018 55.5285196,100.663236 47.2555017,97.6886583 C41.7401564,95.7056067 39.9562703,96.056141 41.9038433,98.7402612 Z"></path>
            <path fill="#6D747F" id="路径-229" d="M24.1488321,61.5920394 C29.1341095,69.8854832 33.5489347,74.0322051 37.3933077,74.0322051 C43.1598672,74.0322051 45.9607464,75.6382688 43.458168,88.2905083 C41.2245082,92.9048838 39.2028882,96.7708754 37.3933077,99.8884831 L43.458168,99.8884831 C53.7128722,84.2946722 58.1961966,74.7524654 56.9081414,71.2618626 C55.6200861,67.7712598 50.4794847,64.5479854 41.4863372,61.5920394 L24.1488321,61.5920394 Z"></path>
            <path fill="#747474" id="路径-230" d="M41.4863372,61.5920394 L53.9434592,59.4888334 C64.6886512,64.3809999 68.9472924,69.2094711 66.7193828,73.974247 C64.4914732,78.739023 56.9503835,87.4722661 44.0961135,100.173976 L43.458168,99.8884831 C53.3294194,82.8443324 57.8127439,73.3021256 56.9081414,71.2618626 C56.0035388,69.2215996 50.8629375,65.9983252 41.4863372,61.5920394 Z"></path>
            <path fill="#373C60" id="路径-231" d="M37.3933077,99.8884831 L37.1508991,102.56905 C41.1304718,105.3177 44.4371228,106.901513 47.0708521,107.320487 C47.5323255,107.461804 56.1615955,107.182575 43.458168,99.8884831 C42.4303199,99.5631521 40.4086998,99.5631521 37.3933077,99.8884831 Z"></path>
        </g>
    </g>
</svg>